<?xml version="1.0" standalone="no"?><!DOCTYPE svg PUBLIC "-//W3C//DTD SVG 1.1//EN" "http://www.w3.org/Graphics/SVG/1.1/DTD/svg11.dtd"><svg t="1529941550506" class="icon" style="" viewBox="0 0 1024 1024" version="1.1" xmlns="http://www.w3.org/2000/svg" p-id="5982" xmlns:xlink="http://www.w3.org/1999/xlink" width="48" height="48"><defs><style type="text/css"></style></defs><path d="M934.313352 65.73105c4.15667 2.818185 6.229888 6.965645 6.229888 12.468986l0 664.643516c0 34.614355-13.851473 62.653969-41.544185 84.117816-27.693736 21.50785-63.690578 32.19526-107.999736 32.19526s-80.31521-10.68741-108.008946-32.19526c-27.693736-21.463848-41.535999-49.502437-41.535999-84.117816 0-34.579563 13.842263-62.618153 41.535999-84.126003 27.693736-21.454638 63.699788-32.18605 108.008946-32.18605l83.080184 0c22.154579 0 33.231869-11.07729 33.231869-33.231869L907.311371 298.356179l-531.715017 93.466742 0 450.717262c0 34.614355-13.851473 62.653969-41.544185 84.116793-27.693736 21.50785-63.690578 32.19526-107.999736 32.19526s-80.31521-10.68741-108.008946-32.19526c-27.693736-21.463848-41.535999-49.502437-41.535999-84.116793 0-34.579563 13.842263-62.618153 41.535999-84.126003 27.693736-21.454638 63.699788-32.18605 108.008946-32.18605l83.080184 0c22.154579 0 33.231869-11.07729 33.231869-33.231869L342.364485 177.895643c0-8.312316 4.847401-13.806447 14.542204-16.616446l564.946886-99.69663C927.391708 61.58359 931.539168 62.966077 934.313352 65.73105z" p-id="5983" fill="#ffffff"></path></svg>