<?xml version="1.0" standalone="no"?><!DOCTYPE svg PUBLIC "-//W3C//DTD SVG 1.1//EN" "http://www.w3.org/Graphics/SVG/1.1/DTD/svg11.dtd"><svg t="1529941664682" class="icon" style="" viewBox="0 0 1024 1024" version="1.1" xmlns="http://www.w3.org/2000/svg" p-id="6564" xmlns:xlink="http://www.w3.org/1999/xlink" width="48" height="48"><defs><style type="text/css"></style></defs><path d="M682.666667 384 682.666667 298.666667 512 298.666667 512 533.333333C494.08 520.106667 472.32 512 448 512 389.12 512 341.333333 559.786667 341.333333 618.666667 341.333333 677.546667 389.12 725.333333 448 725.333333 506.88 725.333333 554.666667 677.546667 554.666667 618.666667L554.666667 384 682.666667 384M512 85.333333C747.52 85.333333 938.666667 276.48 938.666667 512 938.666667 747.52 747.52 938.666667 512 938.666667 276.48 938.666667 85.333333 747.52 85.333333 512 85.333333 276.48 276.48 85.333333 512 85.333333Z" p-id="6565" fill="#ffffff"></path></svg>