<?xml version="1.0" standalone="no"?><!DOCTYPE svg PUBLIC "-//W3C//DTD SVG 1.1//EN"
        "http://www.w3.org/Graphics/SVG/1.1/DTD/svg11.dtd">
        <svg data-v-05f642d9="" version="1.0" xmlns="http://www.w3.org/2000/svg" width="100%" height="100%" viewBox="0 0 340.000000 250.000000" preserveAspectRatio="xMidYMid meet" color-interpolation-filters="sRGB" class="el-tooltip" style="margin: auto;"> <g data-v-05f642d9="" fill="#020202" transform="translate(46.59791564941406,81.69783020019531)"><polyline stroke="#020202" stroke-width="3" fill-opacity="0" points="123.40208435058594,20 123.40208435058594,0 0,0 0,86.60433578491211 123.40208435058594,86.60433578491211 123.40208435058594,66.60433578491211"></polyline> <g transform="translate(0,20)"><rect x="0" y="0" width="246.80416870117188" height="46.60433578491211" fill-opacity="0"></rect> <!----> <g transform="translate(10,3)"><g transform="translate(0.001251220703125,0)"><g><path transform="translate(-1.8270885740765,22.444641202171)" d="M5.91-11.21L14.28-19.67L14.28-19.67Q14.65-20.04 15.15-20.04L15.15-20.04L15.15-20.04Q15.65-20.04 15.99-19.70L15.99-19.70L15.99-19.70Q16.35-19.34 16.35-18.83L16.35-18.83L16.35-18.83Q16.35-18.33 16.02-17.97L16.02-17.97L8.86-10.75L13.73-10.75L13.73-10.75Q14.80-10.75 15.52-9.85L15.52-9.85L15.52-9.85Q16.23-8.95 16.58-7.54L16.58-7.54L16.58-7.54Q16.93-6.12 16.92-4.43L16.92-4.43L16.92-4.43Q16.90-2.74 16.52-1.14L16.52-1.14L16.52-1.14Q16.14 0.46 15.36 1.74L15.36 1.74L15.36 1.74Q14.59 3.01 13.40 3.59L13.40 3.59L13.40 3.59Q13.00 3.78 12.73 3.55L12.73 3.55L12.73 3.55Q12.45 3.32 12.45 2.95L12.45 2.95L12.45-7.70L12.45-7.70Q12.45-8.16 12.13-8.47L12.13-8.47L12.13-8.47Q11.82-8.77 11.39-8.77L11.39-8.77L6.88-8.77L5.91-7.77L5.91-0.06L5.91-0.06Q5.91 0.67 5.63 1.36L5.63 1.36L5.63 1.36Q5.36 2.04 4.89 2.56L4.89 2.56L4.89 2.56Q4.42 3.08 3.78 3.40L3.78 3.40L3.78 3.40Q3.14 3.72 2.41 3.72L2.41 3.72L2.41 3.72Q2.16 3.72 1.99 3.55L1.99 3.55L1.99 3.55Q1.83 3.38 1.83 3.14L1.83 3.14L1.83-18.70L1.83-18.70Q1.83-19.64 2.47-20.14L2.47-20.14L2.47-20.14Q3.11-20.65 3.87-20.65L3.87-20.65L3.87-20.65Q4.63-20.65 5.27-20.17L5.27-20.17L5.27-20.17Q5.91-19.70 5.91-18.70L5.91-18.70L5.91-11.21ZM33.10 0.61L33.10-9.32L33.10-9.32Q33.10-10.35 32.42-10.75L32.42-10.75L32.42-10.75Q31.73-11.15 30.85-11.15L30.85-11.15L27.95-11.15L27.95-11.15Q27.07-11.15 26.48-10.23L26.48-10.23L26.48-10.23Q25.88-9.32 25.61-7.96L25.61-7.96L25.61-7.96Q25.34-6.61 25.35-5.02L25.35-5.02L25.35-5.02Q25.37-3.44 25.69-2.09L25.69-2.09L25.69-2.09Q26.01-0.73 26.61 0.18L26.61 0.18L26.61 0.18Q27.22 1.10 28.11 1.10L28.11 1.10L30.88 1.10L30.88 1.10Q31.46 1.10 31.78 1.45L31.78 1.45L31.78 1.45Q32.10 1.80 32.10 2.31L32.10 2.31L32.10 2.31Q32.10 2.83 31.75 3.12L31.75 3.12L31.75 3.12Q31.40 3.41 30.88 3.41L30.88 3.41L26.89 3.41L26.89 3.41Q24.88 3.41 23.57 2.65L23.57 2.65L23.57 2.65Q22.26 1.89 21.47 0.70L21.47 0.70L21.47 0.70Q20.68-0.49 20.34-1.92L20.34-1.92L20.34-1.92Q20.01-3.35 20.01-4.69L20.01-4.69L20.01-4.69Q20.01-6.06 20.34-7.64L20.34-7.64L20.34-7.64Q20.68-9.23 21.44-10.58L21.44-10.58L21.44-10.58Q22.20-11.94 23.42-12.85L23.42-12.85L23.42-12.85Q24.64-13.76 26.34-13.76L26.34-13.76L30.45-13.76L30.45-13.76Q33.31-13.76 34.47-12.65L34.47-12.65L34.47-12.65Q35.63-11.54 35.63-9.44L35.63-9.44L35.63-0.12L35.63-0.12Q35.63 0.21 35.77 0.49L35.77 0.49L35.77 0.49Q35.90 0.76 36.48 0.76L36.48 0.76L36.57 0.76L36.57 0.76Q37.27 0.73 37.61 1.14L37.61 1.14L37.61 1.14Q37.94 1.55 37.94 2.06L37.94 2.06L37.94 2.06Q37.94 2.56 37.59 2.98L37.59 2.98L37.59 2.98Q37.24 3.41 36.57 3.41L36.57 3.41L35.45 3.41L35.45 3.41Q33.10 3.41 33.10 0.61L33.10 0.61ZM40.74 2.22L40.74-10.11L40.74-10.11Q40.74-11.63 41.60-12.55L41.60-12.55L41.60-12.55Q42.45-13.46 43.79-13.46L43.79-13.46L50.73-13.46L50.73-13.46Q51.80-13.46 52.53-13.06L52.53-13.06L52.53-13.06Q53.26-12.67 53.63-12.07L53.63-12.07L53.63-12.07Q53.99-11.48 53.99-10.73L53.99-10.73L53.99-10.73Q53.99-9.99 53.63-9.27L53.63-9.27L53.63-9.27Q53.26-8.56 52.51-7.98L52.51-7.98L52.51-7.98Q51.77-7.40 50.61-7.10L50.61-7.10L50.61-7.10Q50.21-7.00 49.91-7.13L49.91-7.13L49.91-7.13Q49.61-7.25 49.61-7.67L49.61-7.67L49.61-9.74L49.61-9.74Q49.61-10.26 49.22-10.46L49.22-10.46L49.22-10.46Q48.84-10.66 48.42-10.66L48.42-10.66L44.70-10.66L44.70-10.66Q43.48-10.66 43.48-9.14L43.48-9.14L43.48 2.22L43.48 2.22Q43.48 2.95 43.06 3.30L43.06 3.30L43.06 3.30Q42.63 3.65 42.11 3.65L42.11 3.65L42.11 3.65Q41.60 3.65 41.17 3.29L41.17 3.29L41.17 3.29Q40.74 2.92 40.74 2.22L40.74 2.22ZM63.98-13.46L70.07-13.46L70.07-13.46Q71.41-13.46 72.34-12.71L72.34-12.71L72.34-12.71Q73.27-11.97 73.77-10.86L73.77-10.86L73.77-10.86Q74.27-9.74 74.32-8.45L74.32-8.45L74.32-8.45Q74.36-7.16 73.92-6.04L73.92-6.04L73.92-6.04Q73.48-4.93 72.52-4.19L72.52-4.19L72.52-4.19Q71.56-3.44 70.07-3.44L70.07-3.44L66.11-3.44L66.11-3.44Q65.68-3.44 65.38-3.76L65.38-3.76L65.38-3.76Q65.07-4.08 65.07-4.51L65.07-4.51L65.07-4.51Q65.07-4.93 65.38-5.24L65.38-5.24L65.38-5.24Q65.68-5.54 66.11-5.54L66.11-5.54L70.07-5.54L70.07-5.54Q70.71-5.54 71.12-5.95L71.12-5.95L71.12-5.95Q71.53-6.36 71.71-6.99L71.71-6.99L71.71-6.99Q71.90-7.61 71.87-8.36L71.87-8.36L71.87-8.36Q71.84-9.10 71.59-9.73L71.59-9.73L71.59-9.73Q71.35-10.35 70.91-10.78L70.91-10.78L70.91-10.78Q70.46-11.21 69.86-11.21L69.86-11.21L67.15-11.21L67.15-11.21Q65.74-11.21 64.85-10.26L64.85-10.26L64.85-10.26Q63.95-9.32 63.51-7.90L63.51-7.90L63.51-7.90Q63.07-6.49 63.10-4.83L63.10-4.83L63.10-4.83Q63.13-3.17 63.57-1.75L63.57-1.75L63.57-1.75Q64.01-0.33 64.89 0.61L64.89 0.61L64.89 0.61Q65.78 1.55 67.05 1.55L67.05 1.55L71.93 1.55L71.93 1.55Q72.50 1.55 72.79 1.87L72.79 1.87L72.79 1.87Q73.08 2.19 73.10 2.59L73.10 2.59L73.10 2.59Q73.11 2.98 72.82 3.30L72.82 3.30L72.82 3.30Q72.54 3.62 71.93 3.62L71.93 3.62L63.95 3.62L63.95 3.62Q61.79 3.62 60.37 2.36L60.37 2.36L60.37 2.36Q58.95 1.10 58.25-0.81L58.25-0.81L58.25-0.81Q57.55-2.71 57.58-4.92L57.58-4.92L57.58-4.92Q57.61-7.13 58.33-9.03L58.33-9.03L58.33-9.03Q59.05-10.93 60.46-12.20L60.46-12.20L60.46-12.20Q61.88-13.46 63.98-13.46L63.98-13.46ZM86.82-10.99L82.28-11.02L82.28-11.02Q81.55-11.02 80.92-10.49L80.92-10.49L80.92-10.49Q80.30-9.96 80.30-8.89L80.30-8.89L80.30 2.28L80.30 2.28Q80.30 2.83 79.90 3.24L79.90 3.24L79.90 3.24Q79.51 3.65 78.93 3.65L78.93 3.65L78.93 3.65Q78.35 3.65 77.96 3.24L77.96 3.24L77.96 3.24Q77.56 2.83 77.56 2.28L77.56 2.28L77.56-9.35L77.56-9.35Q77.56-11.30 78.60-12.38L78.60-12.38L78.60-12.38Q79.63-13.46 81.58-13.46L81.58-13.46L89.34-13.46L89.34-13.46Q90.56-13.46 91.49-12.80L91.49-12.80L91.49-12.80Q92.42-12.15 93.03-11.08L93.03-11.08L93.03-11.08Q93.64-10.02 93.96-8.62L93.96-8.62L93.96-8.62Q94.28-7.22 94.28-5.71L94.28-5.71L94.28-5.71Q94.28-4.20 93.97-2.71L93.97-2.71L93.97-2.71Q93.67-1.22 93.06 0.05L93.06 0.05L93.06 0.05Q92.45 1.31 91.52 2.24L91.52 2.24L91.52 2.24Q90.59 3.17 89.38 3.56L89.38 3.56L89.38 3.56Q89.10 3.65 88.87 3.47L88.87 3.47L88.87 3.47Q88.64 3.29 88.64 2.98L88.64 2.98L88.64-9.17L88.64-9.17Q88.64-10.05 88.17-10.52L88.17-10.52L88.17-10.52Q87.70-10.99 86.82-10.99L86.82-10.99ZM97.75-16.14L97.75-16.14L97.75-16.14Q96.77-16.20 96.77-16.90L96.77-16.90L96.77-21.77L96.77-21.77Q96.77-22.11 97.06-22.28L97.06-22.28L97.06-22.28Q97.35-22.44 97.75-22.44L97.75-22.44L97.75-22.44Q99.15-22.47 100.00-22.02L100.00-22.02L100.00-22.02Q100.86-21.56 101.24-20.86L101.24-20.86L101.24-20.86Q101.62-20.16 101.54-19.32L101.54-19.32L101.54-19.32Q101.46-18.48 101.01-17.77L101.01-17.77L101.01-17.77Q100.55-17.05 99.71-16.58L99.71-16.58L99.71-16.58Q98.88-16.11 97.75-16.14ZM108.56-13.46L118.58-13.46L118.58-13.46Q119.19-13.46 119.49-13.08L119.49-13.08L119.49-13.08Q119.80-12.70 119.80-12.24L119.80-12.24L119.80-12.24Q119.80-11.78 119.49-11.40L119.49-11.40L119.49-11.40Q119.19-11.02 118.58-11.02L118.58-11.02L111.73-11.02L111.73-11.02Q111.09-11.02 110.61-10.64L110.61-10.64L110.61-10.64Q110.14-10.26 109.87-9.70L109.87-9.70L109.87-9.70Q109.59-9.14 109.56-8.48L109.56-8.48L109.56-8.48Q109.53-7.83 109.76-7.26L109.76-7.26L109.76-7.26Q109.99-6.70 110.49-6.32L110.49-6.32L110.49-6.32Q111.00-5.94 111.82-5.94L111.82-5.94L116.39-5.94L116.39-5.94Q117.88-5.94 118.84-5.22L118.84-5.22L118.84-5.22Q119.80-4.51 120.27-3.44L120.27-3.44L120.27-3.44Q120.74-2.38 120.72-1.14L120.72-1.14L120.72-1.14Q120.71 0.09 120.25 1.16L120.25 1.16L120.25 1.16Q119.80 2.22 118.91 2.94L118.91 2.94L118.91 2.94Q118.03 3.65 116.75 3.65L116.75 3.65L105.79 3.65L105.79 3.65Q105.30 3.65 104.98 3.33L104.98 3.33L104.98 3.33Q104.66 3.01 104.66 2.53L104.66 2.53L104.66 2.53Q104.66 2.04 104.98 1.71L104.98 1.71L104.98 1.71Q105.30 1.37 105.79 1.37L105.79 1.37L116.26 1.37L116.26 1.37Q116.81 1.37 117.21 1.00L117.21 1.00L117.21 1.00Q117.60 0.64 117.82 0.11L117.82 0.11L117.82 0.11Q118.03-0.43 118.03-1.05L118.03-1.05L118.03-1.05Q118.03-1.67 117.82-2.21L117.82-2.21L117.82-2.21Q117.60-2.74 117.13-3.11L117.13-3.11L117.13-3.11Q116.66-3.47 115.96-3.47L115.96-3.47L109.11-3.47L109.11-3.47Q107.37-3.47 106.28-4.22L106.28-4.22L106.28-4.22Q105.18-4.96 104.66-6.06L104.66-6.06L104.66-6.06Q104.14-7.16 104.19-8.47L104.19-8.47L104.19-8.47Q104.24-9.77 104.75-10.87L104.75-10.87L104.75-10.87Q105.27-11.97 106.25-12.71L106.25-12.71L106.25-12.71Q107.22-13.46 108.56-13.46L108.56-13.46ZM137.12 3.59L126.07 3.59L126.07 3.59Q125.55 3.59 125.20 3.24L125.20 3.24L125.20 3.24Q124.85 2.89 124.85 2.38L124.85 2.38L124.85 2.38Q124.85 1.86 125.20 1.51L125.20 1.51L125.20 1.51Q125.55 1.16 126.07 1.16L126.07 1.16L137.12 1.16L137.12 1.16Q137.64 1.16 137.99 1.51L137.99 1.51L137.99 1.51Q138.34 1.86 138.34 2.38L138.34 2.38L138.34 2.38Q138.34 2.89 137.99 3.24L137.99 3.24L137.99 3.24Q137.64 3.59 137.12 3.59L137.12 3.59ZM158.26 2.56L158.26-6.58L158.26-6.58Q158.26-7.10 157.91-7.45L157.91-7.45L157.91-7.45Q157.56-7.80 157.04-7.80L157.04-7.80L151.86-7.80L151.86-7.80Q151.25-7.80 150.96-8.16L150.96-8.16L150.96-8.16Q150.67-8.53 150.67-8.98L150.67-8.98L150.67-8.98Q150.67-9.44 150.96-9.81L150.96-9.81L150.96-9.81Q151.25-10.17 151.86-10.17L151.86-10.17L157.04-10.17L157.04-10.17Q157.56-10.17 157.91-10.52L157.91-10.52L157.91-10.52Q158.26-10.87 158.26-11.39L158.26-11.39L158.26-18.97L158.26-18.97Q158.26-19.67 158.68-20.04L158.68-20.04L158.68-20.04Q159.11-20.40 159.63-20.40L159.63-20.40L159.63-20.40Q160.14-20.40 160.57-20.05L160.57-20.05L160.57-20.05Q161.00-19.70 161.00-18.97L161.00-18.97L161.00 2.56L161.00 2.56Q161.00 3.29 160.57 3.64L160.57 3.64L160.57 3.64Q160.14 3.99 159.63 3.99L159.63 3.99L159.63 3.99Q159.11 3.99 158.68 3.62L158.68 3.62L158.68 3.62Q158.26 3.26 158.26 2.56L158.26 2.56ZM147.48-20.25L147.48-20.25L147.48-20.25Q147.87-20.43 148.27-20.45L148.27-20.45L148.27-20.45Q148.66-20.46 148.98-20.33L148.98-20.33L148.98-20.33Q149.30-20.19 149.52-19.88L149.52-19.88L149.52-19.88Q149.73-19.58 149.73-19.09L149.73-19.09L149.73 2.62L149.73 2.62Q149.73 3.11 149.52 3.41L149.52 3.41L149.52 3.41Q149.30 3.72 148.98 3.85L148.98 3.85L148.98 3.85Q148.66 3.99 148.27 3.97L148.27 3.97L148.27 3.97Q147.87 3.96 147.48 3.78L147.48 3.78L147.48 3.78Q146.29 3.23 145.38 2.04L145.38 2.04L145.38 2.04Q144.46 0.85 143.85-0.76L143.85-0.76L143.85-0.76Q143.24-2.38 142.92-4.29L142.92-4.29L142.92-4.29Q142.60-6.21 142.59-8.19L142.59-8.19L142.59-8.19Q142.57-10.17 142.88-12.09L142.88-12.09L142.88-12.09Q143.18-14.01 143.79-15.64L143.79-15.64L143.79-15.64Q144.40-17.27 145.31-18.48L145.31-18.48L145.31-18.48Q146.23-19.70 147.48-20.25ZM175.25 1.61L176.53 1.61L176.53 1.61Q177.78 1.61 178.61 0.70L178.61 0.70L178.61 0.70Q179.45-0.21 179.88-1.58L179.88-1.58L179.88-1.58Q180.30-2.95 180.32-4.57L180.32-4.57L180.32-4.57Q180.33-6.18 179.94-7.55L179.94-7.55L179.94-7.55Q179.54-8.92 178.73-9.84L178.73-9.84L178.73-9.84Q177.93-10.75 176.71-10.75L176.71-10.75L175.25-10.75L175.25-10.75Q174.00-10.75 173.18-9.84L173.18-9.84L173.18-9.84Q172.36-8.92 171.94-7.55L171.94-7.55L171.94-7.55Q171.53-6.18 171.52-4.57L171.52-4.57L171.52-4.57Q171.50-2.95 171.91-1.58L171.91-1.58L171.91-1.58Q172.32-0.21 173.16 0.70L173.16 0.70L173.16 0.70Q174.00 1.61 175.25 1.61L175.25 1.61ZM177.32 3.65L171.62 3.65L171.62 3.65Q170.01 3.65 168.79 2.92L168.79 2.92L168.79 2.92Q167.57 2.19 166.78 0.99L166.78 0.99L166.78 0.99Q165.99-0.21 165.60-1.75L165.60-1.75L165.60-1.75Q165.20-3.29 165.23-4.90L165.23-4.90L165.23-4.90Q165.26-6.52 165.72-8.05L165.72-8.05L165.72-8.05Q166.17-9.59 167.07-10.80L167.07-10.80L167.07-10.80Q167.97-12.00 169.29-12.73L169.29-12.73L169.29-12.73Q170.62-13.46 172.39-13.46L172.39-13.46L177.50-13.46L177.50-13.46Q179.30-13.46 180.55-12.20L180.55-12.20L180.55-12.20Q181.80-10.93 182.45-9.03L182.45-9.03L182.45-9.03Q183.10-7.13 183.15-4.90L183.15-4.90L183.15-4.90Q183.20-2.68 182.59-0.78L182.59-0.78L182.59-0.78Q181.98 1.13 180.67 2.39L180.67 2.39L180.67 2.39Q179.36 3.65 177.32 3.65L177.32 3.65ZM201.13-10.99L191.14-11.02L191.14-11.02Q190.41-11.02 189.79-10.49L189.79-10.49L189.79-10.49Q189.16-9.96 189.16-8.89L189.16-8.89L189.16 2.22L189.16 2.22Q189.16 2.77 188.77 3.18L188.77 3.18L188.77 3.18Q188.37 3.59 187.79 3.59L187.79 3.59L187.79 3.59Q187.22 3.59 186.82 3.18L186.82 3.18L186.82 3.18Q186.42 2.77 186.42 2.22L186.42 2.22L186.42-9.35L186.42-9.35Q186.42-11.30 187.46-12.38L187.46-12.38L187.46-12.38Q188.49-13.46 190.44-13.46L190.44-13.46L203.60-13.46L203.60-13.46Q205.24-13.46 206.37-12.32L206.37-12.32L206.37-12.32Q207.50-11.18 208.07-9.41L208.07-9.41L208.07-9.41Q208.65-7.64 208.68-5.57L208.68-5.57L208.68-5.57Q208.71-3.50 208.18-1.61L208.18-1.61L208.18-1.61Q207.65 0.27 206.52 1.66L206.52 1.66L206.52 1.66Q205.40 3.05 203.69 3.41L203.69 3.41L203.69 3.41Q203.45 3.47 203.20 3.30L203.20 3.30L203.20 3.30Q202.96 3.14 202.96 2.83L202.96 2.83L202.96-9.17L202.96-9.17Q202.96-10.99 201.13-10.99L201.13-10.99ZM198.73-7.80L198.73-0.18L198.73-0.18Q198.73 0.61 198.44 1.28L198.44 1.28L198.44 1.28Q198.15 1.95 197.63 2.44L197.63 2.44L197.63 2.44Q197.11 2.92 196.43 3.21L196.43 3.21L196.43 3.21Q195.74 3.50 194.98 3.50L194.98 3.50L194.98 3.50Q194.74 3.50 194.55 3.32L194.55 3.32L194.55 3.32Q194.37 3.14 194.37 2.89L194.37 2.89L194.37-7.80L194.37-7.80Q194.37-8.86 195.06-9.39L195.06-9.39L195.06-9.39Q195.74-9.93 196.55-9.93L196.55-9.93L196.55-9.93Q197.36-9.93 198.04-9.39L198.04-9.39L198.04-9.39Q198.73-8.86 198.73-7.80L198.73-7.80ZM218.25-13.46L224.34-13.46L224.34-13.46Q225.68-13.46 226.60-12.71L226.60-12.71L226.60-12.71Q227.53-11.97 228.04-10.86L228.04-10.86L228.04-10.86Q228.54-9.74 228.58-8.45L228.58-8.45L228.58-8.45Q228.63-7.16 228.19-6.04L228.19-6.04L228.19-6.04Q227.75-4.93 226.79-4.19L226.79-4.19L226.79-4.19Q225.83-3.44 224.34-3.44L224.34-3.44L220.38-3.44L220.38-3.44Q219.95-3.44 219.65-3.76L219.65-3.76L219.65-3.76Q219.34-4.08 219.34-4.51L219.34-4.51L219.34-4.51Q219.34-4.93 219.65-5.24L219.65-5.24L219.65-5.24Q219.95-5.54 220.38-5.54L220.38-5.54L224.34-5.54L224.34-5.54Q224.98-5.54 225.39-5.95L225.39-5.95L225.39-5.95Q225.80-6.36 225.98-6.99L225.98-6.99L225.98-6.99Q226.16-7.61 226.13-8.36L226.13-8.36L226.13-8.36Q226.10-9.10 225.86-9.73L225.86-9.73L225.86-9.73Q225.61-10.35 225.17-10.78L225.17-10.78L225.17-10.78Q224.73-11.21 224.12-11.21L224.12-11.21L221.41-11.21L221.41-11.21Q220.01-11.21 219.11-10.26L219.11-10.26L219.11-10.26Q218.22-9.32 217.77-7.90L217.77-7.90L217.77-7.90Q217.33-6.49 217.36-4.83L217.36-4.83L217.36-4.83Q217.39-3.17 217.83-1.75L217.83-1.75L217.83-1.75Q218.28-0.33 219.16 0.61L219.16 0.61L219.16 0.61Q220.04 1.55 221.32 1.55L221.32 1.55L226.19 1.55L226.19 1.55Q226.77 1.55 227.06 1.87L227.06 1.87L227.06 1.87Q227.35 2.19 227.37 2.59L227.37 2.59L227.37 2.59Q227.38 2.98 227.09 3.30L227.09 3.30L227.09 3.30Q226.80 3.62 226.19 3.62L226.19 3.62L218.22 3.62L218.22 3.62Q216.05 3.62 214.64 2.36L214.64 2.36L214.64 2.36Q213.22 1.10 212.52-0.81L212.52-0.81L212.52-0.81Q211.82-2.71 211.85-4.92L211.85-4.92L211.85-4.92Q211.88-7.13 212.60-9.03L212.60-9.03L212.60-9.03Q213.31-10.93 214.73-12.20L214.73-12.20L214.73-12.20Q216.14-13.46 218.25-13.46L218.25-13.46Z"></path></g> <!----></g> <g transform="translate(0,29.470855712890625)"><!----> <rect x="0" height="1" y="5.054999828338623" width="165.1599998474121"></rect> <!----> <g transform="translate(168.1599998474121,0)"><path transform="translate(-0.1875,8.578125)" d="M3.09-7.59L0.19-7.59L0.19-8.58L7.13-8.58L7.13-7.59L4.22-7.59L4.22 0L3.09 0L3.09-7.59ZM9.23-3.66L9.23-3.66L9.23 0L8.16 0L8.16-6.28L9.19-6.28L9.19-5.20L9.19-5.20Q9.89-6.47 10.97-6.47L10.97-6.47L10.97-6.47Q11.06-6.47 11.16-6.42L11.16-6.42L11.16-6.42Q11.20-6.42 11.25-6.42L11.25-6.42L11.25-5.30L10.83-5.30L10.83-5.30Q9.33-5.20 9.23-3.66ZM14.20-1.13L14.25-1.13L15.89-6.28L17.06-6.28L17.06-6.28Q16.83-5.67 16.41-4.45L16.41-4.45L16.41-4.45Q15.38-1.59 14.81-0.14L14.81-0.14L14.81-0.14Q14.02 1.83 13.69 2.06L13.69 2.06L13.69 2.06Q13.36 2.48 12.33 2.44L12.33 2.44L12.33 2.44Q12.14 2.44 11.91 2.34L11.91 2.34L11.91 1.41L11.91 1.41Q11.95 1.41 12 1.45L12 1.45L12 1.45Q12.28 1.55 12.52 1.55L12.52 1.55L12.52 1.55Q13.13 1.78 13.64 0.09L13.64 0.09L11.34-6.28L12.52-6.28L14.20-1.13ZM21.33-6.28L22.41-6.28L22.41 0L21.33 0L21.33-6.28ZM22.41-8.58L22.41-7.41L21.33-7.41L21.33-8.58L22.41-8.58ZM26.25-6.28L26.25-5.39L25.22-5.39L25.22-1.31L25.22-1.31Q25.22-0.80 25.83-0.80L25.83-0.80L26.25-0.80L26.25 0L26.25 0Q25.97 0 25.59 0L25.59 0L25.59 0Q25.50 0 25.45 0L25.45 0L25.45 0Q24.09 0 24.14-1.22L24.14-1.22L24.14-5.39L23.34-5.39L23.34-6.28L24.14-6.28L24.14-8.02L25.22-8.02L25.22-6.28L26.25-6.28ZM28.17 0L27.52 0L27.52-1.27L28.78-1.27L28.78-0.09L28.78-0.09Q28.78 1.45 27.52 1.69L27.52 1.69L27.52 1.08L27.52 1.08Q28.17 0.98 28.17 0L28.17 0ZM34.73-3.14L34.73-3.14L34.73-3.14Q34.78-0.75 36.42-0.70L36.42-0.70L36.42-0.70Q38.06-0.84 38.11-2.81L38.11-2.81L38.11-2.81Q38.16-5.48 36.42-5.48L36.42-5.48L36.42-5.48Q34.69-5.48 34.73-3.14ZM38.11-6.28L39.09-6.28L39.09-0.52L39.09-0.52Q39.19 2.53 36.23 2.53L36.23 2.53L36.23 2.53Q34.03 2.53 33.80 0.66L33.80 0.66L34.88 0.66L34.88 0.66Q35.06 1.69 36.28 1.69L36.28 1.69L36.28 1.69Q38.16 1.69 38.06-0.42L38.06-0.42L38.06-0.70L38.06-0.66L38.06-0.66Q37.50 0.09 36.38 0.09L36.38 0.09L36.38 0.09Q33.75 0 33.61-3.33L33.61-3.33L33.61-3.33Q33.75-6.33 36.23-6.47L36.23-6.47L36.23-6.47Q37.41-6.47 38.11-5.39L38.11-5.39L38.11-6.28ZM44.86-1.97L44.86-1.97L45.89-1.97L45.89-1.97Q45.70-0.89 44.77-0.23L44.77-0.23L44.77-0.23Q44.25 0.09 43.08 0.09L43.08 0.09L43.08 0.09Q40.41 0 40.27-2.95L40.27-2.95L40.27-2.95Q40.36-6.38 43.27-6.47L43.27-6.47L43.27-6.47Q45.94-6.42 45.98-2.77L45.98-2.77L41.39-2.77L41.39-2.77Q41.39-0.70 43.22-0.70L43.22-0.70L43.22-0.70Q44.53-0.80 44.86-1.97ZM41.39-3.61L41.39-3.61L44.91-3.61L44.91-3.61Q44.77-5.48 43.13-5.48L43.13-5.48L43.13-5.48Q41.58-5.34 41.39-3.61ZM49.55-6.28L49.55-5.39L48.52-5.39L48.52-1.31L48.52-1.31Q48.52-0.80 49.13-0.80L49.13-0.80L49.55-0.80L49.55 0L49.55 0Q49.27 0 48.89 0L48.89 0L48.89 0Q48.80 0 48.75 0L48.75 0L48.75 0Q47.39 0 47.44-1.22L47.44-1.22L47.44-5.39L46.64-5.39L46.64-6.28L47.44-6.28L47.44-8.02L48.52-8.02L48.52-6.28L49.55-6.28ZM53.91-6.28L54.98-6.28L54.98 0L53.91 0L53.91-6.28ZM54.98-8.58L54.98-7.41L53.91-7.41L53.91-8.58L54.98-8.58ZM58.83-6.28L58.83-5.39L57.80-5.39L57.80-1.31L57.80-1.31Q57.80-0.80 58.41-0.80L58.41-0.80L58.83-0.80L58.83 0L58.83 0Q58.55 0 58.17 0L58.17 0L58.17 0Q58.08 0 58.03 0L58.03 0L58.03 0Q56.67 0 56.72-1.22L56.72-1.22L56.72-5.39L55.92-5.39L55.92-6.28L56.72-6.28L56.72-8.02L57.80-8.02L57.80-6.28L58.83-6.28Z"></path></g></g></g></g></g></svg>