<?xml version="1.0" standalone="no"?><!DOCTYPE svg PUBLIC "-//W3C//DTD SVG 1.1//EN"
        "http://www.w3.org/Graphics/SVG/1.1/DTD/svg11.dtd">
<svg data-v-05f642d9=""  width="100%" height="100%" viewBox="0 0 340.000000 250.000000" preserveAspectRatio="xMidYMid meet" colorInterpolationFilters="sRGB" class="el-tooltip" style="margin: auto;"><g data-v-05f642d9="" fill="#020202" transform="translate(87.94905090332031,42.94905090332031)"><g fill="#020202"><polyline stroke="#020202" strokeWidth="2" fillOpacity="0" points="10.992742774331234,62.04226684570313 10.992742774331234,41.02547454833985 82.05094909667969,0 153.10915541902813,41.02547454833985 153.10915541902813,62.04226684570313"></polyline> <polyline stroke="#020202" strokeWidth="2" fillOpacity="0" points="10.992742774331234,102.05963134765625 10.992742774331234,123.07642364501953 82.05094909667969,164.10189819335938 153.10915541902813,123.07642364501953 153.10915541902813,102.05963134765625"></polyline>  <g transform="translate(0,62.04226684570313)"><rect x="0" y="0" width="164.10189819335938" height="40.017364501953125" fillOpacity="0"></rect>  <g transform="translate(0,3)"><g transform="translate(0,0)"><g><path id="logo_2_1" transform="translate(-0.48810250152531,15.912141549725)" d="M6.35-2.83L6.35-7.22L6.35-7.22Q7.03-7.32 8.10-6.35L8.10-6.35L8.10-6.35Q11.52-2.83 11.91-1.66L11.91-1.66L11.91-1.66Q11.91-0.98 10.15-0.98L10.15-0.98L10.15 0L18.74 0L18.74-0.98L18.74-0.98Q16.69-0.88 14.94-3.32L14.94-3.32L12.79-6.05L12.79-6.05Q10.93-8.30 10.05-8.79L10.05-8.79L10.05-8.79Q11.13-9.57 12.79-11.81L12.79-11.81L12.79-11.81Q13.76-13.28 14.25-13.67L14.25-13.67L14.25-13.67Q14.74-14.15 15.23-14.35L15.23-14.35L15.23-14.35Q15.72-14.45 16.99-14.55L16.99-14.55L16.99-15.52L10.25-15.52L10.25-14.55L10.54-14.55L10.54-14.55Q12.01-14.55 12.01-13.76L12.01-13.76L12.01-13.76Q11.91-12.59 9.66-9.96L9.66-9.96L9.66-9.96Q7.91-8.30 6.35-8.10L6.35-8.10L6.35-12.59L6.35-12.59Q6.15-14.64 8.20-14.55L8.20-14.55L8.69-14.55L8.69-15.52L0.49-15.52L0.49-14.55L0.88-14.55L0.88-14.55Q2.93-14.64 2.83-12.69L2.83-12.69L2.83-2.83L2.83-2.83Q2.93-0.88 0.98-0.98L0.98-0.98L0.49-0.98L0.49 0L8.69 0L8.69-0.98L8.30-0.98L8.30-0.98Q6.25-0.88 6.35-2.83L6.35-2.83ZM29.97-1.27L29.58-1.85L29.58-1.85Q29.29-1.56 28.90-1.56L28.90-1.56L28.90-1.56Q28.41-1.46 28.41-2.73L28.41-2.73L28.41-7.42L28.41-7.42Q28.21-10.05 24.31-10.45L24.31-10.45L24.31-10.45Q21.57-10.25 20.21-8.98L20.21-8.98L20.21-8.98Q19.23-8.10 19.62-6.54L19.62-6.54L22.45-7.52L22.45-7.52Q22.26-9.37 23.72-9.47L23.72-9.47L23.72-9.47Q25.19-9.37 25.28-7.81L25.28-7.81L25.28-6.83L25.28-6.83Q24.31-6.05 22.36-5.47L22.36-5.47L22.36-5.47Q20.79-4.98 20.21-4.39L20.21-4.39L20.21-4.39Q19.43-3.61 19.43-2.34L19.43-2.34L19.43-2.34Q19.52 0 22.26 0.10L22.26 0.10L22.26 0.10Q24.01 0.20 25.38-1.27L25.38-1.27L25.38-1.27Q25.58 0 27.14 0.10L27.14 0.10L27.14 0.10Q28.70 0 29.97-1.27L29.97-1.27ZM25.28-5.76L25.28-2.15L25.28-2.15Q24.31-1.17 23.62-1.17L23.62-1.17L23.62-1.17Q22.45-1.27 22.36-2.83L22.36-2.83L22.36-2.83Q22.26-4.30 24.01-4.98L24.01-4.98L24.01-4.98Q24.89-5.37 25.28-5.76L25.28-5.76ZM37.88 0L37.88-0.78L37.19-0.78L37.19-0.78Q35.44-0.68 35.53-2.44L35.53-2.44L35.53-6.54L35.53-6.54Q36.31-7.71 37.00-7.61L37.00-7.61L37.00-7.61Q37.58-7.61 39.05-7.03L39.05-7.03L39.05-7.03Q39.83-8.10 40.22-9.66L40.22-9.66L38.27-10.35L38.27-10.35Q38.07-10.45 37.78-10.45L37.78-10.45L37.78-10.45Q37.19-10.45 36.80-9.96L36.80-9.96L36.80-9.96Q36.41-9.57 35.63-7.91L35.63-7.91L35.53-7.91L35.53-10.74L35.05-10.74L30.95-9.18L30.95-8.59L31.63-8.30L31.63-8.30Q32.61-8.00 32.51-6.64L32.51-6.64L32.51-2.54L32.51-2.54Q32.61-0.68 31.04-0.78L31.04-0.78L30.95-0.78L30.95 0L37.88 0ZM51.15-2.93L50.57-3.42L50.57-3.42Q48.81-1.46 47.54-1.56L47.54-1.56L47.54-1.56Q45.00-1.85 44.51-5.27L44.51-5.27L51.45-5.27L51.45-5.95L51.45-5.95Q51.06-6.15 50.86-7.03L50.86-7.03L50.86-7.03Q50.57-8.49 49.79-9.27L49.79-9.27L49.79-9.27Q48.62-10.45 46.66-10.45L46.66-10.45L46.66-10.45Q41.68-10.05 41.29-4.88L41.29-4.88L41.29-4.88Q41.49-0.10 45.88 0.10L45.88 0.10L45.88 0.10Q49.01 0 51.15-2.93L51.15-2.93ZM47.93-6.15L44.42-6.15L44.42-6.15Q44.32-8.88 46.17-9.27L46.17-9.27L46.17-9.27Q47.83-9.18 47.93-6.15L47.93-6.15ZM64.53-2.25L64.53-6.15L64.53-6.15Q64.62-10.54 61.89-10.45L61.89-10.45L61.89-10.45Q60.04-10.45 57.21-8.49L57.21-8.49L57.21-10.74L56.82-10.74L52.52-9.27L52.52-8.69L53.01-8.59L53.01-8.59Q54.28-8.20 54.18-7.42L54.18-7.42L54.18-2.54L54.18-2.54Q54.28-0.68 52.81-0.78L52.81-0.78L52.62-0.78L52.62 0L58.96 0L58.96-0.78L58.77-0.78L58.77-0.78Q57.21-0.78 57.21-2.44L57.21-2.44L57.21-7.52L57.21-7.52Q58.77-8.59 59.94-8.59L59.94-8.59L59.94-8.59Q61.40-8.69 61.40-5.76L61.40-5.76L61.40-3.61L61.40-3.61Q61.50-0.78 60.04-0.78L60.04-0.78L60.04 0L65.89 0L65.89-0.78L65.89-0.78Q64.43-0.68 64.53-2.25L64.53-2.25ZM68.33-12.50L69.60-7.81L70.19-7.81L71.46-12.50L71.46-12.50Q71.75-13.47 71.75-14.06L71.75-14.06L71.75-14.06Q71.65-15.81 69.90-15.91L69.90-15.91L69.90-15.91Q68.24-15.81 68.14-14.06L68.14-14.06L68.14-14.06Q68.14-13.47 68.33-12.50L68.33-12.50ZM74.39-2.93L74.68 0L75.36 0L75.36 0Q75.66-0.10 75.85-0.10L75.85-0.10L75.85-0.10Q75.95-0.10 76.34 0L76.34 0L76.34 0Q77.41 0.10 78.49 0.10L78.49 0.10L78.49 0.10Q81.61 0 81.81-2.93L81.81-2.93L81.81-2.93Q81.81-4.88 78.88-6.44L78.88-6.44L78.88-6.44Q76.83-7.61 76.83-8.49L76.83-8.49L76.83-8.49Q76.92-9.27 78.00-9.37L78.00-9.37L78.00-9.37Q79.66-9.37 80.34-7.22L80.34-7.22L81.12-7.22L81.12-9.96L81.12-9.96Q79.76-10.45 78.29-10.45L78.29-10.45L78.29-10.45Q74.58-10.25 74.39-7.32L74.39-7.32L74.39-7.32Q74.39-5.56 77.22-3.90L77.22-3.90L77.22-3.90Q79.07-2.73 79.07-1.95L79.07-1.95L79.07-1.95Q78.88-0.88 77.80-0.78L77.80-0.78L77.80-0.78Q75.85-0.98 75.17-2.93L75.17-2.93L74.39-2.93ZM82.68 2.93L95.38 2.93L95.38 1.66L82.68 1.66L82.68 2.93ZM107.87-0.98L107.48-0.98L107.48 0L115.49 0L115.49-0.98L115.09-0.98L115.09-0.98Q113.04-0.88 113.14-2.83L113.14-2.83L113.14-12.79L113.14-12.79Q113.04-14.64 115.00-14.55L115.00-14.55L115.49-14.55L115.49-15.52L107.48-15.52L107.48-14.55L107.68-14.55L107.68-14.55Q109.82-14.64 109.73-12.69L109.73-12.69L109.73-8.79L101.43-8.79L101.43-12.79L101.43-12.79Q101.33-14.64 103.38-14.55L103.38-14.55L103.77-14.55L103.77-15.52L95.77-15.52L95.77-14.55L96.16-14.55L96.16-14.55Q98.01-14.55 98.01-12.79L98.01-12.79L98.01-2.83L98.01-2.83Q98.01-0.98 96.16-0.98L96.16-0.98L95.77-0.98L95.77 0L103.77 0L103.77-0.98L103.38-0.98L103.38-0.98Q101.43-0.98 101.43-2.83L101.43-2.83L101.43-7.32L109.73-7.32L109.73-2.93L109.73-2.93Q109.73-0.98 107.87-0.98L107.87-0.98ZM117.05-4.98L117.05-4.98L117.05-4.98Q117.34-0.10 122.90 0.10L122.90 0.10L122.90 0.10Q128.76-0.20 129.25-5.27L129.25-5.27L129.25-5.27Q128.86-10.05 123.29-10.45L123.29-10.45L123.29-10.45Q117.54-10.05 117.05-4.98ZM120.37-6.44L120.37-6.44L120.37-6.44Q120.46-9.27 122.71-9.37L122.71-9.37L122.71-9.37Q125.74-8.98 125.93-3.90L125.93-3.90L125.93-3.90Q125.83-0.88 123.69-0.78L123.69-0.78L123.69-0.78Q120.66-0.98 120.37-6.44ZM143.40-2.44L143.40-7.03L143.40-7.03Q146.04-8.69 146.92-8.59L146.92-8.59L146.92-8.59Q148.48-8.59 148.48-5.76L148.48-5.76L148.48-3.61L148.48-3.61Q148.58-0.78 147.02-0.78L147.02-0.78L147.02 0L152.87 0L152.87-0.78L152.87-0.78Q151.41-0.68 151.51-2.25L151.51-2.25L151.51-6.15L151.51-6.15Q151.60-10.54 148.87-10.45L148.87-10.45L148.87-10.45Q146.82-10.45 143.31-7.91L143.31-7.91L143.31-7.91Q142.92-10.35 140.77-10.45L140.77-10.45L140.77-10.45Q139.21-10.64 135.30-7.91L135.30-7.91L135.30-10.74L134.91-10.74L130.62-9.27L130.62-8.69L131.20-8.49L131.20-8.49Q132.37-8.10 132.28-7.42L132.28-7.42L132.28-2.54L132.28-2.54Q132.37-0.68 130.81-0.78L130.81-0.78L130.71-0.78L130.71 0L136.96 0L136.96-0.78L136.77-0.78L136.77-0.78Q135.30-0.78 135.30-2.44L135.30-2.44L135.30-7.03L135.30-7.03Q137.74-8.69 138.82-8.59L138.82-8.59L138.82-8.59Q140.38-8.59 140.38-6.15L140.38-6.15L140.38-2.54L140.38-2.54Q140.48-0.68 138.91-0.78L138.91-0.78L138.91 0L144.87 0L144.87-0.78L144.87-0.78Q143.40-0.78 143.40-2.44L143.40-2.44ZM164.30-2.93L163.71-3.42L163.71-3.42Q161.95-1.46 160.68-1.56L160.68-1.56L160.68-1.56Q158.15-1.85 157.66-5.27L157.66-5.27L164.59-5.27L164.59-5.95L164.59-5.95Q164.20-6.15 164.00-7.03L164.00-7.03L164.00-7.03Q163.71-8.49 162.93-9.27L162.93-9.27L162.93-9.27Q161.76-10.45 159.80-10.45L159.80-10.45L159.80-10.45Q154.83-10.05 154.44-4.88L154.44-4.88L154.44-4.88Q154.63-0.10 159.02 0.10L159.02 0.10L159.02 0.10Q162.15 0 164.30-2.93L164.30-2.93ZM161.07-6.15L157.56-6.15L157.56-6.15Q157.46-8.88 159.32-9.27L159.32-9.27L159.32-9.27Q160.98-9.18 161.07-6.15L161.07-6.15Z"></path></g> </g> <g transform="translate(0,22.911385536193848)"> <rect x="0" height="1" y="5.054999828338623" width="49.73000144958496"></rect> <rect height="1" y="5.054999828338623" width="49.73000144958496" x="114.37000465393066"></rect> <g transform="translate(52.73000144958496,0)"><path id="logo_2_2" transform="translate(-0.1875,8.578125)" d="M3.09-7.59L0.19-7.59L0.19-8.58L7.13-8.58L7.13-7.59L4.22-7.59L4.22 0L3.09 0L3.09-7.59ZM9.23-3.66L9.23-3.66L9.23 0L8.16 0L8.16-6.28L9.19-6.28L9.19-5.20L9.19-5.20Q9.89-6.47 10.97-6.47L10.97-6.47L10.97-6.47Q11.06-6.47 11.16-6.42L11.16-6.42L11.16-6.42Q11.20-6.42 11.25-6.42L11.25-6.42L11.25-5.30L10.83-5.30L10.83-5.30Q9.33-5.20 9.23-3.66ZM14.20-1.13L14.25-1.13L15.89-6.28L17.06-6.28L17.06-6.28Q16.83-5.67 16.41-4.45L16.41-4.45L16.41-4.45Q15.38-1.59 14.81-0.14L14.81-0.14L14.81-0.14Q14.02 1.83 13.69 2.06L13.69 2.06L13.69 2.06Q13.36 2.48 12.33 2.44L12.33 2.44L12.33 2.44Q12.14 2.44 11.91 2.34L11.91 2.34L11.91 1.41L11.91 1.41Q11.95 1.41 12 1.45L12 1.45L12 1.45Q12.28 1.55 12.52 1.55L12.52 1.55L12.52 1.55Q13.13 1.78 13.64 0.09L13.64 0.09L11.34-6.28L12.52-6.28L14.20-1.13ZM21.33-6.28L22.41-6.28L22.41 0L21.33 0L21.33-6.28ZM22.41-8.58L22.41-7.41L21.33-7.41L21.33-8.58L22.41-8.58ZM26.25-6.28L26.25-5.39L25.22-5.39L25.22-1.31L25.22-1.31Q25.22-0.80 25.83-0.80L25.83-0.80L26.25-0.80L26.25 0L26.25 0Q25.97 0 25.59 0L25.59 0L25.59 0Q25.50 0 25.45 0L25.45 0L25.45 0Q24.09 0 24.14-1.22L24.14-1.22L24.14-5.39L23.34-5.39L23.34-6.28L24.14-6.28L24.14-8.02L25.22-8.02L25.22-6.28L26.25-6.28ZM28.17 0L27.52 0L27.52-1.27L28.78-1.27L28.78-0.09L28.78-0.09Q28.78 1.45 27.52 1.69L27.52 1.69L27.52 1.08L27.52 1.08Q28.17 0.98 28.17 0L28.17 0ZM34.73-3.14L34.73-3.14L34.73-3.14Q34.78-0.75 36.42-0.70L36.42-0.70L36.42-0.70Q38.06-0.84 38.11-2.81L38.11-2.81L38.11-2.81Q38.16-5.48 36.42-5.48L36.42-5.48L36.42-5.48Q34.69-5.48 34.73-3.14ZM38.11-6.28L39.09-6.28L39.09-0.52L39.09-0.52Q39.19 2.53 36.23 2.53L36.23 2.53L36.23 2.53Q34.03 2.53 33.80 0.66L33.80 0.66L34.88 0.66L34.88 0.66Q35.06 1.69 36.28 1.69L36.28 1.69L36.28 1.69Q38.16 1.69 38.06-0.42L38.06-0.42L38.06-0.70L38.06-0.66L38.06-0.66Q37.50 0.09 36.38 0.09L36.38 0.09L36.38 0.09Q33.75 0 33.61-3.33L33.61-3.33L33.61-3.33Q33.75-6.33 36.23-6.47L36.23-6.47L36.23-6.47Q37.41-6.47 38.11-5.39L38.11-5.39L38.11-6.28ZM44.86-1.97L44.86-1.97L45.89-1.97L45.89-1.97Q45.70-0.89 44.77-0.23L44.77-0.23L44.77-0.23Q44.25 0.09 43.08 0.09L43.08 0.09L43.08 0.09Q40.41 0 40.27-2.95L40.27-2.95L40.27-2.95Q40.36-6.38 43.27-6.47L43.27-6.47L43.27-6.47Q45.94-6.42 45.98-2.77L45.98-2.77L41.39-2.77L41.39-2.77Q41.39-0.70 43.22-0.70L43.22-0.70L43.22-0.70Q44.53-0.80 44.86-1.97ZM41.39-3.61L41.39-3.61L44.91-3.61L44.91-3.61Q44.77-5.48 43.13-5.48L43.13-5.48L43.13-5.48Q41.58-5.34 41.39-3.61ZM49.55-6.28L49.55-5.39L48.52-5.39L48.52-1.31L48.52-1.31Q48.52-0.80 49.13-0.80L49.13-0.80L49.55-0.80L49.55 0L49.55 0Q49.27 0 48.89 0L48.89 0L48.89 0Q48.80 0 48.75 0L48.75 0L48.75 0Q47.39 0 47.44-1.22L47.44-1.22L47.44-5.39L46.64-5.39L46.64-6.28L47.44-6.28L47.44-8.02L48.52-8.02L48.52-6.28L49.55-6.28ZM53.91-6.28L54.98-6.28L54.98 0L53.91 0L53.91-6.28ZM54.98-8.58L54.98-7.41L53.91-7.41L53.91-8.58L54.98-8.58ZM58.83-6.28L58.83-5.39L57.80-5.39L57.80-1.31L57.80-1.31Q57.80-0.80 58.41-0.80L58.41-0.80L58.83-0.80L58.83 0L58.83 0Q58.55 0 58.17 0L58.17 0L58.17 0Q58.08 0 58.03 0L58.03 0L58.03 0Q56.67 0 56.72-1.22L56.72-1.22L56.72-5.39L55.92-5.39L55.92-6.28L56.72-6.28L56.72-8.02L57.80-8.02L57.80-6.28L58.83-6.28Z"></path></g></g></g></g></g></g></svg>