<?xml version="1.0" standalone="no"?><!DOCTYPE svg PUBLIC "-//W3C//DTD SVG 1.1//EN"
        "http://www.w3.org/Graphics/SVG/1.1/DTD/svg11.dtd">
        <svg data-v-05f642d9="" version="1.0" xmlns="http://www.w3.org/2000/svg" width="70%" height="70%" viewBox="0 0 340.000000 250.000000" preserveAspectRatio="xMidYMid meet" colorInterpolationFilters="sRGB" class="el-tooltip" style="margin: auto;"> <g data-v-05f642d9="" fill="#020202" transform="translate(57.3800048828125,81.4052619934082)"><polyline stroke="#020202" strokeWidth="3" fillOpacity="0" points="112.6199951171875,20 112.6199951171875,0 0,0 0,87.18947219848633 112.6199951171875,87.18947219848633 112.6199951171875,67.18947219848633"></polyline> <g transform="translate(0,20)"><rect x="0" y="0" width="225.239990234375" height="47.18947219848633" fillOpacity="0"></rect> <!----> <g transform="translate(10,3)"><g transform="translate(0,0)"><g><path id="logo_1_1" transform="translate(-2.101151860188,23.082218985834)" d="M21.26-5.02L21.26-5.02L21.26-5.02Q21.19-4.20 20.84-3.43L20.84-3.43L20.84-3.43Q20.49-2.65 19.92-2.10L19.92-2.10L19.92-2.10Q18.64-0.85 16.72-0.73L16.72-0.73L16.72-0.73Q15.44-0.67 14.34-0.99L14.34-0.99L14.34-0.99Q13.25-1.31 12.36-1.95L12.36-1.95L12.36-1.95Q11.30-2.71 10.52-3.84L10.52-3.84L10.52-3.84Q9.74-4.96 9.23-6.33L9.23-6.33L9.23-6.33Q8.65-7.89 8.34-9.58L8.34-9.58L8.34-9.58Q8.04-11.27 7.92-12.73L7.92-12.73L5.33-10.99L5.33-0.64L3.90-0.49L2.10-22.56L5.33-23.05L5.33-12.30L15.23-21.86L18.06-19.58L8.22-12.94L10.96-13.31L10.96-13.31Q11.02-11.82 11.11-10.41L11.11-10.41L11.11-10.41Q11.21-9.01 11.45-7.64L11.45-7.64L11.45-7.64Q11.69-6.49 12.06-5.28L12.06-5.28L12.06-5.28Q12.42-4.08 13.22-3.20L13.22-3.20L13.22-3.20Q14.13-2.19 15.47-1.83L15.47-1.83L15.47-1.83Q16.99-1.43 18.24-1.95L18.24-1.95L18.24-1.95Q18.94-2.22 19.41-2.76L19.41-2.76L19.41-2.76Q19.88-3.29 20.16-3.96L20.16-3.96L20.16-3.96Q20.46-4.75 20.46-5.59L20.46-5.59L20.46-5.59Q20.46-6.43 20.07-7.19L20.07-7.19L20.07-7.19Q19.73-7.83 19.15-8.25L19.15-8.25L19.15-8.25Q18.58-8.68 17.69-8.77L17.69-8.77L17.69-8.77Q16.66-8.89 15.71-8.47L15.71-8.47L15.71-8.47Q15.20-8.22 14.80-7.77L14.80-7.77L14.80-7.77Q14.40-7.31 14.25-6.67L14.25-6.67L14.25-6.67Q14.10-6.15 14.19-5.63L14.19-5.63L14.19-5.63Q14.28-5.12 14.53-4.69L14.53-4.69L14.53-4.69Q15.10-3.72 16.23-3.62L16.23-3.62L16.23-3.62Q16.66-3.56 17.11-3.68L17.11-3.68L17.11-3.68Q17.57-3.81 17.94-4.08L17.94-4.08L17.94-4.08Q18.24-4.32 18.44-4.67L18.44-4.67L18.44-4.67Q18.64-5.02 18.64-5.45L18.64-5.45L18.64-5.45Q18.67-5.97 18.39-6.39L18.39-6.39L18.39-6.39Q18.12-6.82 17.69-6.97L17.69-6.97L17.69-6.97Q17.33-7.13 17.01-7.05L17.01-7.05L17.01-7.05Q16.69-6.97 16.47-6.76L16.47-6.76L16.47-6.76Q16.23-6.52 16.20-6.23L16.20-6.23L16.20-6.23Q16.17-5.94 16.32-5.69L16.32-5.69L16.32-5.69Q16.60-5.27 16.99-5.48L16.99-5.48L16.99-5.48Q17.36-5.63 17.45-6.12L17.45-6.12L17.45-6.12Q17.78-5.69 17.63-5.27L17.63-5.27L17.63-5.27Q17.48-4.81 16.81-4.75L16.81-4.75L16.81-4.75Q16.47-4.72 16.18-4.87L16.18-4.87L16.18-4.87Q15.90-5.02 15.74-5.33L15.74-5.33L15.74-5.33Q15.59-5.66 15.56-6.04L15.56-6.04L15.56-6.04Q15.53-6.43 15.71-6.79L15.71-6.79L15.71-6.79Q16.02-7.40 16.75-7.64L16.75-7.64L16.75-7.64Q17.14-7.77 17.59-7.70L17.59-7.70L17.59-7.70Q18.03-7.64 18.42-7.34L18.42-7.34L18.42-7.34Q18.91-7.00 19.14-6.52L19.14-6.52L19.14-6.52Q19.37-6.03 19.34-5.51L19.34-5.51L19.34-5.51Q19.28-4.29 18.42-3.56L18.42-3.56L18.42-3.56Q17.97-3.17 17.39-3.00L17.39-3.00L17.39-3.00Q16.81-2.83 16.23-2.86L16.23-2.86L16.23-2.86Q15.68-2.89 15.13-3.14L15.13-3.14L15.13-3.14Q14.59-3.38 14.19-3.81L14.19-3.81L14.19-3.81Q13.73-4.29 13.55-4.95L13.55-4.95L13.55-4.95Q13.37-5.60 13.43-6.36L13.43-6.36L13.43-6.36Q13.58-7.86 14.71-8.71L14.71-8.71L14.71-8.71Q15.26-9.14 15.94-9.36L15.94-9.36L15.94-9.36Q16.63-9.59 17.39-9.56L17.39-9.56L17.39-9.56Q18.30-9.53 19.03-9.20L19.03-9.20L19.03-9.20Q19.76-8.86 20.28-8.28L20.28-8.28L20.28-8.28Q20.83-7.64 21.07-6.78L21.07-6.78L21.07-6.78Q21.32-5.91 21.26-5.02ZM40.99-3.93L40.99-3.93L40.99-3.93Q40.99-3.05 40.65-2.39L40.65-2.39L40.65-2.39Q40.32-1.74 39.77-1.31L39.77-1.31L39.77-1.31Q39.07-0.76 38.13-0.56L38.13-0.56L38.13-0.56Q37.18-0.37 36.21-0.55L36.21-0.55L36.21-0.55Q35.23-0.70 34.65-1.26L34.65-1.26L34.65-1.26Q34.08-1.83 33.71-2.62L33.71-2.62L33.71-2.62Q32.95-1.55 31.82-1.04L31.82-1.04L31.82-1.04Q30.70-0.52 29.48-0.52L29.48-0.52L29.48-0.52Q28.14-0.52 26.86-1.07L26.86-1.07L26.86-1.07Q25.58-1.61 24.70-2.68L24.70-2.68L24.70-2.68Q24.00-3.47 23.68-4.49L23.68-4.49L23.68-4.49Q23.36-5.51 23.30-6.61L23.30-6.61L23.30-6.61Q23.23-8.07 23.57-9.49L23.57-9.49L23.57-9.49Q23.90-10.90 24.70-12.09L24.70-12.09L24.70-12.09Q25.40-13.16 26.43-13.92L26.43-13.92L26.43-13.92Q27.47-14.68 28.84-15.01L28.84-15.01L28.84-15.01Q30.18-15.35 31.59-15.13L31.59-15.13L31.59-15.13Q33.01-14.92 34.29-14.13L34.29-14.13L34.29-14.13Q34.35-14.40 34.41-14.65L34.41-14.65L34.41-14.65Q34.47-14.89 34.53-15.13L34.53-15.13L38.13-15.53L38.13-15.53Q37.15-13.40 36.39-11.22L36.39-11.22L36.39-11.22Q35.63-9.04 35.23-6.52L35.23-6.52L35.23-6.52Q35.08-5.45 35.08-4.43L35.08-4.43L35.08-4.43Q35.08-3.41 35.48-2.62L35.48-2.62L35.48-2.62Q35.78-2.01 36.36-1.71L36.36-1.71L36.36-1.71Q36.94-1.40 37.55-1.37L37.55-1.37L37.55-1.37Q38.58-1.34 39.37-2.01L39.37-2.01L39.37-2.01Q39.80-2.41 40.04-2.94L40.04-2.94L40.04-2.94Q40.29-3.47 40.29-4.08L40.29-4.08L40.29-4.08Q40.29-4.57 40.09-4.99L40.09-4.99L40.09-4.99Q39.89-5.42 39.47-5.76L39.47-5.76L39.47-5.76Q39.16-6.00 38.75-6.09L38.75-6.09L38.75-6.09Q38.34-6.18 37.94-6.12L37.94-6.12L37.94-6.12Q37.00-5.97 36.66-5.24L36.66-5.24L36.66-5.24Q36.42-4.72 36.66-4.05L36.66-4.05L36.66-4.05Q36.75-3.78 36.98-3.55L36.98-3.55L36.98-3.55Q37.21-3.32 37.49-3.20L37.49-3.20L37.49-3.20Q37.79-3.08 38.08-3.14L38.08-3.14L38.08-3.14Q38.37-3.20 38.58-3.53L38.58-3.53L38.58-3.53Q38.73-3.78 38.69-4.05L38.69-4.05L38.69-4.05Q38.64-4.32 38.34-4.48L38.34-4.48L38.34-4.48Q38.09-4.60 37.84-4.55L37.84-4.55L37.84-4.55Q37.58-4.51 37.42-4.17L37.42-4.17L37.42-4.17Q37.39-4.60 37.58-4.84L37.58-4.84L37.58-4.84Q37.76-5.09 38.06-5.15L38.06-5.15L38.06-5.15Q38.43-5.21 38.72-5.05L38.72-5.05L38.72-5.05Q39.01-4.90 39.16-4.63L39.16-4.63L39.16-4.63Q39.31-4.35 39.33-4.02L39.33-4.02L39.33-4.02Q39.34-3.68 39.22-3.38L39.22-3.38L39.22-3.38Q39.07-3.05 38.76-2.79L38.76-2.79L38.76-2.79Q38.46-2.53 38.00-2.47L38.00-2.47L38.00-2.47Q37.49-2.41 37.06-2.63L37.06-2.63L37.06-2.63Q36.63-2.86 36.33-3.26L36.33-3.26L36.33-3.26Q36.02-3.68 35.90-4.19L35.90-4.19L35.90-4.19Q35.78-4.69 35.93-5.21L35.93-5.21L35.93-5.21Q36.08-5.79 36.50-6.17L36.50-6.17L36.50-6.17Q36.91-6.55 37.42-6.70L37.42-6.70L37.42-6.70Q37.97-6.88 38.58-6.81L38.58-6.81L38.58-6.81Q39.19-6.73 39.71-6.39L39.71-6.39L39.71-6.39Q40.38-5.97 40.68-5.31L40.68-5.31L40.68-5.31Q40.99-4.66 40.99-3.93ZM34.04-13.19L34.04-13.19L34.04-13.19Q33.19-13.61 32.25-13.70L32.25-13.70L32.25-13.70Q31.30-13.79 30.42-13.58L30.42-13.58L30.42-13.58Q29.48-13.34 28.65-12.82L28.65-12.82L28.65-12.82Q27.83-12.30 27.25-11.48L27.25-11.48L27.25-11.48Q26.65-10.63 26.36-9.58L26.36-9.58L26.36-9.58Q26.07-8.53 26.07-7.37L26.07-7.37L26.07-7.37Q26.07-6.43 26.33-5.37L26.33-5.37L26.33-5.37Q26.58-4.32 27.13-3.50L27.13-3.50L27.13-3.50Q27.62-2.77 28.34-2.34L28.34-2.34L28.34-2.34Q29.05-1.92 30.06-1.98L30.06-1.98L30.06-1.98Q30.97-2.04 31.84-2.51L31.84-2.51L31.84-2.51Q32.70-2.98 33.34-3.68L33.34-3.68L33.34-3.68Q33.13-4.48 33.10-5.44L33.10-5.44L33.10-5.44Q33.07-6.39 33.13-7.43L33.13-7.43L33.13-7.43Q33.22-8.89 33.48-10.40L33.48-10.40L33.48-10.40Q33.74-11.91 34.04-13.19ZM54.26-12.70L51.74-11.51L51.74-11.51Q51.71-12.76 51.25-13.34L51.25-13.34L51.25-13.34Q50.95-13.76 50.55-13.86L50.55-13.86L50.55-13.86Q50.15-13.95 49.70-13.79L49.70-13.79L49.70-13.79Q49.03-13.61 48.36-13.03L48.36-13.03L48.36-13.03Q47.93-12.67 47.53-12.20L47.53-12.20L47.53-12.20Q47.14-11.72 46.86-11.18L46.86-11.18L46.47-0.73L45.01-0.58L44.00-14.68L47.05-15.10L46.96-13.00L46.96-13.00Q47.41-13.61 48.11-14.13L48.11-14.13L48.11-14.13Q48.81-14.65 49.61-14.92L49.61-14.92L49.61-14.92Q50.49-15.23 51.37-15.13L51.37-15.13L51.37-15.13Q52.25-15.04 52.99-14.49L52.99-14.49L52.99-14.49Q53.32-14.22 53.66-13.79L53.66-13.79L53.66-13.79Q53.99-13.37 54.26-12.70L54.26-12.70ZM70.68-5.15L70.68-5.15L70.68-5.15Q70.65-4.35 70.33-3.58L70.33-3.58L70.33-3.58Q70.01-2.80 69.43-2.22L69.43-2.22L69.43-2.22Q68.09-0.82 65.29-0.46L65.29-0.46L65.29-0.46Q64.16-0.30 63.00-0.43L63.00-0.43L63.00-0.43Q61.85-0.55 60.78-0.94L60.78-0.94L60.78-0.94Q59.41-1.46 58.53-2.38L58.53-2.38L58.53-2.38Q57.64-3.29 57.16-4.48L57.16-4.48L57.16-4.48Q56.55-6.03 56.61-7.66L56.61-7.66L56.61-7.66Q56.67-9.29 57.31-10.75L57.31-10.75L57.31-10.75Q57.83-11.91 58.66-12.90L58.66-12.90L58.66-12.90Q59.50-13.89 60.66-14.53L60.66-14.53L60.66-14.53Q62.21-15.41 64.01-15.47L64.01-15.47L64.01-15.47Q65.81-15.53 67.51-14.53L67.51-14.53L67.51-14.53Q68.67-13.82 69.48-12.65L69.48-12.65L69.48-12.65Q70.28-11.48 70.56-9.90L70.56-9.90L59.53-8.50L59.53-8.50Q59.47-7.46 59.64-6.47L59.64-6.47L59.64-6.47Q59.81-5.48 60.14-4.69L60.14-4.69L60.14-4.69Q60.51-3.87 61.15-3.29L61.15-3.29L61.15-3.29Q61.79-2.71 62.64-2.38L62.64-2.38L62.64-2.38Q63.80-1.92 64.98-1.89L64.98-1.89L64.98-1.89Q66.17-1.86 67.24-2.25L67.24-2.25L67.24-2.25Q67.94-2.50 68.53-3.00L68.53-3.00L68.53-3.00Q69.12-3.50 69.43-4.14L69.43-4.14L69.43-4.14Q69.83-4.99 69.73-5.77L69.73-5.77L69.73-5.77Q69.64-6.55 69.19-7.06L69.19-7.06L69.19-7.06Q68.85-7.43 68.35-7.63L68.35-7.63L68.35-7.63Q67.85-7.83 67.33-7.83L67.33-7.83L67.33-7.83Q66.81-7.83 66.32-7.61L66.32-7.61L66.32-7.61Q65.84-7.40 65.47-7.06L65.47-7.06L65.47-7.06Q65.07-6.70 64.97-6.23L64.97-6.23L64.97-6.23Q64.86-5.76 64.98-5.30L64.98-5.30L64.98-5.30Q65.14-4.81 65.52-4.46L65.52-4.46L65.52-4.46Q65.90-4.11 66.51-4.14L66.51-4.14L66.51-4.14Q66.96-4.17 67.25-4.37L67.25-4.37L67.25-4.37Q67.54-4.57 67.66-4.87L67.66-4.87L67.66-4.87Q67.78-5.18 67.66-5.45L67.66-5.45L67.66-5.45Q67.54-5.72 67.18-5.88L67.18-5.88L67.18-5.88Q66.93-5.97 66.63-5.92L66.63-5.92L66.63-5.92Q66.32-5.88 66.02-5.63L66.02-5.63L66.02-5.63Q66.23-6.15 66.58-6.35L66.58-6.35L66.58-6.35Q66.93-6.55 67.30-6.52L67.30-6.52L67.30-6.52Q67.75-6.46 68.01-6.18L68.01-6.18L68.01-6.18Q68.27-5.91 68.36-5.51L68.36-5.51L68.36-5.51Q68.49-4.87 68.21-4.35L68.21-4.35L68.21-4.35Q67.82-3.65 66.93-3.50L66.93-3.50L66.93-3.50Q66.48-3.41 65.99-3.50L65.99-3.50L65.99-3.50Q65.50-3.59 65.14-3.84L65.14-3.84L65.14-3.84Q64.68-4.17 64.44-4.67L64.44-4.67L64.44-4.67Q64.19-5.18 64.19-5.69L64.19-5.69L64.19-5.69Q64.19-6.76 64.89-7.52L64.89-7.52L64.89-7.52Q65.26-7.92 65.79-8.15L65.79-8.15L65.79-8.15Q66.32-8.37 66.90-8.44L66.90-8.44L66.90-8.44Q67.63-8.53 68.33-8.36L68.33-8.36L68.33-8.36Q69.03-8.19 69.55-7.77L69.55-7.77L69.55-7.77Q70.16-7.25 70.43-6.56L70.43-6.56L70.43-6.56Q70.71-5.88 70.68-5.15ZM59.59-9.35L67.51-10.35L67.51-10.35Q67.36-11.18 67.01-11.97L67.01-11.97L67.01-11.97Q66.66-12.76 66.05-13.37L66.05-13.37L66.05-13.37Q65.53-13.89 64.88-14.13L64.88-14.13L64.88-14.13Q64.22-14.37 63.43-14.28L63.43-14.28L63.43-14.28Q62.85-14.22 62.30-13.95L62.30-13.95L62.30-13.95Q61.76-13.67 61.24-13.16L61.24-13.16L61.24-13.16Q60.51-12.42 60.08-11.39L60.08-11.39L60.08-11.39Q59.65-10.35 59.59-9.35L59.59-9.35ZM87.52-10.72L87.52-10.72L87.52-10.72Q87.43-8.16 86.88-5.63L86.88-5.63L86.88-5.63Q86.33-3.11 85.63-0.64L85.63-0.64L84.23-0.49L84.23-0.49Q84.53-2.65 84.70-4.69L84.70-4.69L84.70-4.69Q84.87-6.73 84.87-8.77L84.87-8.77L84.87-8.77Q84.87-9.68 84.75-10.80L84.75-10.80L84.75-10.80Q84.62-11.91 84.11-12.73L84.11-12.73L84.11-12.73Q83.71-13.40 83.04-13.72L83.04-13.72L83.04-13.72Q82.37-14.04 81.31-13.79L81.31-13.79L81.31-13.79Q80.24-13.55 79.16-12.94L79.16-12.94L79.16-12.94Q78.08-12.33 77.22-11.63L77.22-11.63L77.22-0.67L75.79-0.52L74.18-14.92L77.22-15.32L77.22-12.73L77.22-12.73Q78.20-13.52 79.30-14.07L79.30-14.07L79.30-14.07Q80.39-14.62 81.61-14.89L81.61-14.89L81.61-14.89Q82.77-15.13 83.83-15.04L83.83-15.04L83.83-15.04Q84.90-14.95 85.72-14.43L85.72-14.43L85.72-14.43Q86.57-13.92 87.08-13.00L87.08-13.00L87.08-13.00Q87.58-12.09 87.52-10.72ZM95.37-22.32L94.37-15.35L93.21-15.20L92.33-21.96L95.37-22.32ZM113.25-10.96L110.36-9.96L110.36-9.96Q110.30-10.90 109.99-11.71L109.99-11.71L109.99-11.71Q109.69-12.52 109.14-13.12L109.14-13.12L109.14-13.12Q108.56-13.76 107.71-14.05L107.71-14.05L107.71-14.05Q106.85-14.34 105.97-14.22L105.97-14.22L105.97-14.22Q105.18-14.13 104.56-13.72L104.56-13.72L104.56-13.72Q103.93-13.31 103.60-12.79L103.60-12.79L103.60-12.79Q103.23-12.21 103.31-11.62L103.31-11.62L103.31-11.62Q103.38-11.02 104.17-10.66L104.17-10.66L104.17-10.66Q104.97-10.29 105.73-10.02L105.73-10.02L105.73-10.02Q106.49-9.74 107.31-9.47L107.31-9.47L107.31-9.47Q108.13-9.20 108.94-8.94L108.94-8.94L108.94-8.94Q109.75-8.68 110.54-8.31L110.54-8.31L110.54-8.31Q111.36-7.95 111.95-7.38L111.95-7.38L111.95-7.38Q112.55-6.82 112.85-6.09L112.85-6.09L112.85-6.09Q113.19-5.30 113.07-4.43L113.07-4.43L113.07-4.43Q112.94-3.56 112.55-2.89L112.55-2.89L112.55-2.89Q111.79-1.61 110.20-1.10L110.20-1.10L110.20-1.10Q109.23-0.79 108.22-0.67L108.22-0.67L108.22-0.67Q107.22-0.55 106.28-0.58L106.28-0.58L106.28-0.58Q104.81-0.61 103.49-1.00L103.49-1.00L103.49-1.00Q102.16-1.40 101.43-2.28L101.43-2.28L101.43-2.28Q100.52-3.32 100.58-4.60L100.58-4.60L100.58-4.60Q100.61-5.30 100.95-5.85L100.95-5.85L100.95-5.85Q101.28-6.39 101.80-6.73L101.80-6.73L101.80-6.73Q102.35-7.06 103.05-7.19L103.05-7.19L103.05-7.19Q103.75-7.31 104.42-7.16L104.42-7.16L104.42-7.16Q105.03-7.03 105.53-6.71L105.53-6.71L105.53-6.71Q106.03-6.39 106.31-5.79L106.31-5.79L106.31-5.79Q106.55-5.24 106.49-4.67L106.49-4.67L106.49-4.67Q106.43-4.11 106.12-3.68L106.12-3.68L106.12-3.68Q105.61-2.95 104.57-2.80L104.57-2.80L104.57-2.80Q104.05-2.74 103.54-2.89L103.54-2.89L103.54-2.89Q103.02-3.05 102.68-3.38L102.68-3.38L102.68-3.38Q102.41-3.65 102.29-4.05L102.29-4.05L102.29-4.05Q102.16-4.45 102.32-4.90L102.32-4.90L102.32-4.90Q102.44-5.24 102.74-5.48L102.74-5.48L102.74-5.48Q103.05-5.72 103.47-5.76L103.47-5.76L103.47-5.76Q103.81-5.79 104.11-5.62L104.11-5.62L104.11-5.62Q104.42-5.45 104.54-5.12L104.54-5.12L104.54-5.12Q104.63-4.87 104.49-4.57L104.49-4.57L104.49-4.57Q104.36-4.26 103.87-4.05L103.87-4.05L103.87-4.05Q104.11-4.45 103.99-4.81L103.99-4.81L103.99-4.81Q103.93-4.96 103.85-5.07L103.85-5.07L103.85-5.07Q103.78-5.18 103.63-5.18L103.63-5.18L103.63-5.18Q103.41-5.21 103.25-5.07L103.25-5.07L103.25-5.07Q103.08-4.93 103.02-4.72L103.02-4.72L103.02-4.72Q102.87-4.26 103.08-3.96L103.08-3.96L103.08-3.96Q103.32-3.59 103.79-3.50L103.79-3.50L103.79-3.50Q104.27-3.41 104.72-3.56L104.72-3.56L104.72-3.56Q105.15-3.68 105.42-3.99L105.42-3.99L105.42-3.99Q105.70-4.29 105.76-4.78L105.76-4.78L105.76-4.78Q105.82-5.21 105.54-5.66L105.54-5.66L105.54-5.66Q105.27-6.12 104.66-6.36L104.66-6.36L104.66-6.36Q104.08-6.61 103.43-6.55L103.43-6.55L103.43-6.55Q102.77-6.49 102.29-6.18L102.29-6.18L102.29-6.18Q101.83-5.91 101.60-5.53L101.60-5.53L101.60-5.53Q101.37-5.15 101.31-4.72L101.31-4.72L101.31-4.72Q101.22-3.81 101.92-3.01L101.92-3.01L101.92-3.01Q102.56-2.28 103.75-2.01L103.75-2.01L103.75-2.01Q104.94-1.74 106.25-1.80L106.25-1.80L106.25-1.80Q106.67-1.80 107.17-1.86L107.17-1.86L107.17-1.86Q107.68-1.92 108.21-2.03L108.21-2.03L108.21-2.03Q108.74-2.13 109.23-2.33L109.23-2.33L109.23-2.33Q109.72-2.53 110.11-2.80L110.11-2.80L110.11-2.80Q110.57-3.14 110.75-3.50L110.75-3.50L110.75-3.50Q110.93-3.87 110.90-4.32L110.90-4.32L110.90-4.32Q110.87-4.90 110.57-5.39L110.57-5.39L110.57-5.39Q110.26-5.88 109.66-6.12L109.66-6.12L109.66-6.12Q108.86-6.46 107.97-6.76L107.97-6.76L107.97-6.76Q107.07-7.06 106.15-7.37L106.15-7.37L106.15-7.37Q105.27-7.67 104.43-7.96L104.43-7.96L104.43-7.96Q103.60-8.25 102.80-8.62L102.80-8.62L102.80-8.62Q101.95-9.01 101.54-9.74L101.54-9.74L101.54-9.74Q101.13-10.48 101.13-11.27L101.13-11.27L101.13-11.27Q101.13-11.94 101.37-12.52L101.37-12.52L101.37-12.52Q101.62-13.09 102.04-13.52L102.04-13.52L102.04-13.52Q102.56-14.07 103.28-14.45L103.28-14.45L103.28-14.45Q103.99-14.83 104.72-15.01L104.72-15.01L104.72-15.01Q105.79-15.29 106.98-15.23L106.98-15.23L106.98-15.23Q108.16-15.16 109.23-14.83L109.23-14.83L109.23-14.83Q109.87-14.62 110.51-14.24L110.51-14.24L110.51-14.24Q111.15-13.86 111.70-13.35L111.70-13.35L111.70-13.35Q112.24-12.85 112.66-12.24L112.66-12.24L112.66-12.24Q113.07-11.63 113.25-10.96L113.25-10.96ZM130.33 3.81L115.11 3.81L115.11 2.28L130.33 2.28L130.33 3.81ZM148.09-23.08L146.26-0.61L144.83-0.40L144.83-22.66L148.09-23.08ZM143.46-14.16L142.88-12.58L142.88-12.58Q142.57-12.70 141.95-12.79L141.95-12.79L141.95-12.79Q141.33-12.88 140.81-12.82L140.81-12.82L135.90-12.15L135.90-0.67L134.47-0.49L132.68-22.53L135.90-22.96L135.90-13.00L141.05-13.70L141.05-13.70Q141.57-13.76 142.25-13.89L142.25-13.89L142.25-13.89Q142.94-14.01 143.46-14.16L143.46-14.16ZM165.35-10.23L165.35-10.23L165.35-10.23Q165.69-9.17 165.64-7.90L165.64-7.90L165.64-7.90Q165.60-6.64 165.26-5.42L165.26-5.42L165.26-5.42Q164.93-4.32 164.36-3.36L164.36-3.36L164.36-3.36Q163.80-2.41 162.92-1.80L162.92-1.80L162.92-1.80Q162.03-1.19 160.97-0.81L160.97-0.81L160.97-0.81Q159.90-0.43 158.59-0.46L158.59-0.46L158.59-0.46Q157.13-0.49 155.99-1.04L155.99-1.04L155.99-1.04Q154.85-1.58 154.05-2.53L154.05-2.53L154.05-2.53Q153.17-3.59 152.70-4.96L152.70-4.96L152.70-4.96Q152.23-6.33 152.26-7.86L152.26-7.86L152.26-7.86Q152.29-9.41 152.82-10.67L152.82-10.67L152.82-10.67Q153.35-11.94 154.27-12.94L154.27-12.94L154.27-12.94Q155.24-14.01 156.51-14.75L156.51-14.75L156.51-14.75Q157.77-15.50 159.23-15.99L159.23-15.99L159.99-14.46L159.99-14.46Q160.94-14.40 161.71-14.10L161.71-14.10L161.71-14.10Q162.49-13.79 163.19-13.31L163.19-13.31L163.19-13.31Q164.04-12.73 164.56-11.94L164.56-11.94L164.56-11.94Q165.08-11.15 165.35-10.23ZM163.65-7.25L163.65-7.25L163.65-7.25Q163.77-8.22 163.62-9.27L163.62-9.27L163.62-9.27Q163.46-10.32 163.01-11.24L163.01-11.24L163.01-11.24Q162.58-12.12 161.88-12.77L161.88-12.77L161.88-12.77Q161.18-13.43 160.21-13.67L160.21-13.67L160.21-13.67Q159.35-13.58 158.61-13.25L158.61-13.25L158.61-13.25Q157.86-12.91 157.22-12.39L157.22-12.39L157.22-12.39Q156.37-11.69 155.76-10.70L155.76-10.70L155.76-10.70Q155.15-9.71 154.88-8.56L154.88-8.56L154.88-8.56Q154.60-7.40 154.74-6.23L154.74-6.23L154.74-6.23Q154.88-5.05 155.58-4.08L155.58-4.08L155.58-4.08Q156.19-3.23 157.01-2.83L157.01-2.83L157.01-2.83Q157.83-2.44 158.80-2.38L158.80-2.38L158.80-2.38Q159.90-2.31 160.68-2.69L160.68-2.69L160.68-2.69Q161.45-3.08 162.09-3.78L162.09-3.78L162.09-3.78Q162.73-4.48 163.11-5.37L163.11-5.37L163.11-5.37Q163.49-6.27 163.65-7.25ZM189.68-9.41L189.68-9.41L189.68-9.41Q189.50-7.22 189.10-5.05L189.10-5.05L189.10-5.05Q188.71-2.89 188.07-0.70L188.07-0.70L186.67-0.52L186.67-0.52Q186.82-1.67 186.96-2.94L186.96-2.94L186.96-2.94Q187.09-4.20 187.15-5.51L187.15-5.51L187.15-5.51Q187.22-6.82 187.22-8.08L187.22-8.08L187.22-8.08Q187.22-9.35 187.09-10.48L187.09-10.48L187.09-10.48Q187.00-11.33 186.77-12.09L186.77-12.09L186.77-12.09Q186.55-12.85 186.03-13.37L186.03-13.37L186.03-13.37Q185.66-13.70 185.14-13.87L185.14-13.87L185.14-13.87Q184.63-14.04 183.90-13.95L183.90-13.95L183.90-13.95Q183.29-13.86 182.66-13.60L182.66-13.60L182.66-13.60Q182.04-13.34 181.46-12.85L181.46-12.85L181.46-12.85Q180.94-12.42 180.62-11.95L180.62-11.95L180.62-11.95Q180.30-11.48 180.27-11.02L180.27-11.02L179.79-0.70L178.35-0.55L177.78-11.36L177.78-11.36Q177.71-12.52 177.30-13.11L177.30-13.11L177.30-13.11Q176.89-13.70 176.28-13.86L176.28-13.86L176.28-13.86Q175.83-14.01 175.29-13.93L175.29-13.93L175.29-13.93Q174.76-13.86 174.21-13.61L174.21-13.61L174.21-13.61Q173.70-13.40 173.24-13.09L173.24-13.09L173.24-13.09Q172.78-12.79 172.39-12.45L172.39-12.45L172.39-0.70L170.95-0.55L169.34-14.92L172.39-15.29L172.39-13.58L172.39-13.58Q172.78-13.92 173.22-14.19L173.22-14.19L173.22-14.19Q173.66-14.46 174.15-14.68L174.15-14.68L174.15-14.68Q175.07-15.07 176.04-15.15L176.04-15.15L176.04-15.15Q177.01-15.23 177.90-14.92L177.90-14.92L177.90-14.92Q178.63-14.68 179.22-14.18L179.22-14.18L179.22-14.18Q179.82-13.67 180.15-12.79L180.15-12.79L180.15-12.79Q180.88-13.73 181.98-14.34L181.98-14.34L181.98-14.34Q183.07-14.95 184.23-15.13L184.23-15.13L184.23-15.13Q185.69-15.35 186.71-15.09L186.71-15.09L186.71-15.09Q187.73-14.83 188.43-14.16L188.43-14.16L188.43-14.16Q189.23-13.40 189.53-12.20L189.53-12.20L189.53-12.20Q189.83-10.99 189.68-9.41ZM207.31-5.15L207.31-5.15L207.31-5.15Q207.28-4.35 206.96-3.58L206.96-3.58L206.96-3.58Q206.64-2.80 206.07-2.22L206.07-2.22L206.07-2.22Q204.73-0.82 201.92-0.46L201.92-0.46L201.92-0.46Q200.80-0.30 199.64-0.43L199.64-0.43L199.64-0.43Q198.48-0.55 197.42-0.94L197.42-0.94L197.42-0.94Q196.05-1.46 195.16-2.38L195.16-2.38L195.16-2.38Q194.28-3.29 193.79-4.48L193.79-4.48L193.79-4.48Q193.18-6.03 193.25-7.66L193.25-7.66L193.25-7.66Q193.31-9.29 193.95-10.75L193.95-10.75L193.95-10.75Q194.46-11.91 195.30-12.90L195.30-12.90L195.30-12.90Q196.14-13.89 197.30-14.53L197.30-14.53L197.30-14.53Q198.85-15.41 200.64-15.47L200.64-15.47L200.64-15.47Q202.44-15.53 204.15-14.53L204.15-14.53L204.15-14.53Q205.30-13.82 206.11-12.65L206.11-12.65L206.11-12.65Q206.92-11.48 207.19-9.90L207.19-9.90L196.17-8.50L196.17-8.50Q196.11-7.46 196.27-6.47L196.27-6.47L196.27-6.47Q196.44-5.48 196.78-4.69L196.78-4.69L196.78-4.69Q197.14-3.87 197.78-3.29L197.78-3.29L197.78-3.29Q198.42-2.71 199.27-2.38L199.27-2.38L199.27-2.38Q200.43-1.92 201.62-1.89L201.62-1.89L201.62-1.89Q202.81-1.86 203.87-2.25L203.87-2.25L203.87-2.25Q204.57-2.50 205.17-3.00L205.17-3.00L205.17-3.00Q205.76-3.50 206.07-4.14L206.07-4.14L206.07-4.14Q206.46-4.99 206.37-5.77L206.37-5.77L206.37-5.77Q206.28-6.55 205.82-7.06L205.82-7.06L205.82-7.06Q205.49-7.43 204.98-7.63L204.98-7.63L204.98-7.63Q204.48-7.83 203.96-7.83L203.96-7.83L203.96-7.83Q203.45-7.83 202.96-7.61L202.96-7.61L202.96-7.61Q202.47-7.40 202.11-7.06L202.11-7.06L202.11-7.06Q201.71-6.70 201.60-6.23L201.60-6.23L201.60-6.23Q201.50-5.76 201.62-5.30L201.62-5.30L201.62-5.30Q201.77-4.81 202.15-4.46L202.15-4.46L202.15-4.46Q202.53-4.11 203.14-4.14L203.14-4.14L203.14-4.14Q203.60-4.17 203.89-4.37L203.89-4.37L203.89-4.37Q204.18-4.57 204.30-4.87L204.30-4.87L204.30-4.87Q204.42-5.18 204.30-5.45L204.30-5.45L204.30-5.45Q204.18-5.72 203.81-5.88L203.81-5.88L203.81-5.88Q203.57-5.97 203.26-5.92L203.26-5.92L203.26-5.92Q202.96-5.88 202.65-5.63L202.65-5.63L202.65-5.63Q202.87-6.15 203.22-6.35L203.22-6.35L203.22-6.35Q203.57-6.55 203.93-6.52L203.93-6.52L203.93-6.52Q204.39-6.46 204.65-6.18L204.65-6.18L204.65-6.18Q204.91-5.91 205.00-5.51L205.00-5.51L205.00-5.51Q205.12-4.87 204.85-4.35L204.85-4.35L204.85-4.35Q204.45-3.65 203.57-3.50L203.57-3.50L203.57-3.50Q203.11-3.41 202.62-3.50L202.62-3.50L202.62-3.50Q202.14-3.59 201.77-3.84L201.77-3.84L201.77-3.84Q201.31-4.17 201.07-4.67L201.07-4.67L201.07-4.67Q200.83-5.18 200.83-5.69L200.83-5.69L200.83-5.69Q200.83-6.76 201.53-7.52L201.53-7.52L201.53-7.52Q201.89-7.92 202.43-8.15L202.43-8.15L202.43-8.15Q202.96-8.37 203.54-8.44L203.54-8.44L203.54-8.44Q204.27-8.53 204.97-8.36L204.97-8.36L204.97-8.36Q205.67-8.19 206.19-7.77L206.19-7.77L206.19-7.77Q206.80-7.25 207.07-6.56L207.07-6.56L207.07-6.56Q207.34-5.88 207.31-5.15ZM196.23-9.35L204.15-10.35L204.15-10.35Q203.99-11.18 203.64-11.97L203.64-11.97L203.64-11.97Q203.29-12.76 202.69-13.37L202.69-13.37L202.69-13.37Q202.17-13.89 201.51-14.13L201.51-14.13L201.51-14.13Q200.86-14.37 200.07-14.28L200.07-14.28L200.07-14.28Q199.49-14.22 198.94-13.95L198.94-13.95L198.94-13.95Q198.39-13.67 197.87-13.16L197.87-13.16L197.87-13.16Q197.14-12.42 196.72-11.39L196.72-11.39L196.72-11.39Q196.29-10.35 196.23-9.35L196.23-9.35Z"></path></g> <!----></g> <g transform="translate(73.29999351501465,30.08356475830078)"><!----> <!----> <!----> <g><path id="logo_1_2" transform="translate(-0.1875,8.578125)" d="M3.09-7.59L0.19-7.59L0.19-8.58L7.13-8.58L7.13-7.59L4.22-7.59L4.22 0L3.09 0L3.09-7.59ZM9.23-3.66L9.23-3.66L9.23 0L8.16 0L8.16-6.28L9.19-6.28L9.19-5.20L9.19-5.20Q9.89-6.47 10.97-6.47L10.97-6.47L10.97-6.47Q11.06-6.47 11.16-6.42L11.16-6.42L11.16-6.42Q11.20-6.42 11.25-6.42L11.25-6.42L11.25-5.30L10.83-5.30L10.83-5.30Q9.33-5.20 9.23-3.66ZM14.20-1.13L14.25-1.13L15.89-6.28L17.06-6.28L17.06-6.28Q16.83-5.67 16.41-4.45L16.41-4.45L16.41-4.45Q15.38-1.59 14.81-0.14L14.81-0.14L14.81-0.14Q14.02 1.83 13.69 2.06L13.69 2.06L13.69 2.06Q13.36 2.48 12.33 2.44L12.33 2.44L12.33 2.44Q12.14 2.44 11.91 2.34L11.91 2.34L11.91 1.41L11.91 1.41Q11.95 1.41 12 1.45L12 1.45L12 1.45Q12.28 1.55 12.52 1.55L12.52 1.55L12.52 1.55Q13.13 1.78 13.64 0.09L13.64 0.09L11.34-6.28L12.52-6.28L14.20-1.13ZM21.33-6.28L22.41-6.28L22.41 0L21.33 0L21.33-6.28ZM22.41-8.58L22.41-7.41L21.33-7.41L21.33-8.58L22.41-8.58ZM26.25-6.28L26.25-5.39L25.22-5.39L25.22-1.31L25.22-1.31Q25.22-0.80 25.83-0.80L25.83-0.80L26.25-0.80L26.25 0L26.25 0Q25.97 0 25.59 0L25.59 0L25.59 0Q25.50 0 25.45 0L25.45 0L25.45 0Q24.09 0 24.14-1.22L24.14-1.22L24.14-5.39L23.34-5.39L23.34-6.28L24.14-6.28L24.14-8.02L25.22-8.02L25.22-6.28L26.25-6.28ZM28.17 0L27.52 0L27.52-1.27L28.78-1.27L28.78-0.09L28.78-0.09Q28.78 1.45 27.52 1.69L27.52 1.69L27.52 1.08L27.52 1.08Q28.17 0.98 28.17 0L28.17 0ZM34.73-3.14L34.73-3.14L34.73-3.14Q34.78-0.75 36.42-0.70L36.42-0.70L36.42-0.70Q38.06-0.84 38.11-2.81L38.11-2.81L38.11-2.81Q38.16-5.48 36.42-5.48L36.42-5.48L36.42-5.48Q34.69-5.48 34.73-3.14ZM38.11-6.28L39.09-6.28L39.09-0.52L39.09-0.52Q39.19 2.53 36.23 2.53L36.23 2.53L36.23 2.53Q34.03 2.53 33.80 0.66L33.80 0.66L34.88 0.66L34.88 0.66Q35.06 1.69 36.28 1.69L36.28 1.69L36.28 1.69Q38.16 1.69 38.06-0.42L38.06-0.42L38.06-0.70L38.06-0.66L38.06-0.66Q37.50 0.09 36.38 0.09L36.38 0.09L36.38 0.09Q33.75 0 33.61-3.33L33.61-3.33L33.61-3.33Q33.75-6.33 36.23-6.47L36.23-6.47L36.23-6.47Q37.41-6.47 38.11-5.39L38.11-5.39L38.11-6.28ZM44.86-1.97L44.86-1.97L45.89-1.97L45.89-1.97Q45.70-0.89 44.77-0.23L44.77-0.23L44.77-0.23Q44.25 0.09 43.08 0.09L43.08 0.09L43.08 0.09Q40.41 0 40.27-2.95L40.27-2.95L40.27-2.95Q40.36-6.38 43.27-6.47L43.27-6.47L43.27-6.47Q45.94-6.42 45.98-2.77L45.98-2.77L41.39-2.77L41.39-2.77Q41.39-0.70 43.22-0.70L43.22-0.70L43.22-0.70Q44.53-0.80 44.86-1.97ZM41.39-3.61L41.39-3.61L44.91-3.61L44.91-3.61Q44.77-5.48 43.13-5.48L43.13-5.48L43.13-5.48Q41.58-5.34 41.39-3.61ZM49.55-6.28L49.55-5.39L48.52-5.39L48.52-1.31L48.52-1.31Q48.52-0.80 49.13-0.80L49.13-0.80L49.55-0.80L49.55 0L49.55 0Q49.27 0 48.89 0L48.89 0L48.89 0Q48.80 0 48.75 0L48.75 0L48.75 0Q47.39 0 47.44-1.22L47.44-1.22L47.44-5.39L46.64-5.39L46.64-6.28L47.44-6.28L47.44-8.02L48.52-8.02L48.52-6.28L49.55-6.28ZM53.91-6.28L54.98-6.28L54.98 0L53.91 0L53.91-6.28ZM54.98-8.58L54.98-7.41L53.91-7.41L53.91-8.58L54.98-8.58ZM58.83-6.28L58.83-5.39L57.80-5.39L57.80-1.31L57.80-1.31Q57.80-0.80 58.41-0.80L58.41-0.80L58.83-0.80L58.83 0L58.83 0Q58.55 0 58.17 0L58.17 0L58.17 0Q58.08 0 58.03 0L58.03 0L58.03 0Q56.67 0 56.72-1.22L56.72-1.22L56.72-5.39L55.92-5.39L55.92-6.28L56.72-6.28L56.72-8.02L57.80-8.02L57.80-6.28L58.83-6.28Z"></path></g></g></g></g></g></svg>